<svg viewBox="0 0 24 24" fill="none" xmlns="http://www.w3.org/2000/svg"><defs><linearGradient id="igG" x1="2" y1="22" x2="22" y2="2"><stop offset="0%" stop-color="#fd5949"/><stop offset="50%" stop-color="#d6249f"/><stop offset="100%" stop-color="#285AEB"/></linearGradient></defs><rect width="24" height="24" rx="6" fill="url(#igG)"/><path d="M12 5.8c2.015 0 2.253.008 3.048.044s1.336.16 1.815.347A4.2 4.2 0 0 1 18.3 7.63a4.2 4.2 0 0 1 1.439 1.439c.187.48.293 1.02.347 1.815.036.795.044 1.033.044 3.048v1.136c0 2.015-.008 2.253-.044 3.048a5.558 5.558 0 0 1-.347 1.815 4.2 4.2 0 0 1-1.439 1.439 4.2 4.2 0 0 1-1.439 1.439c-.48.187-1.02.293-1.815.347-.795.036-1.033.044-3.048.044h-1.136c-2.015 0-2.253-.008-3.048-.044a5.558 5.558 0 0 1-1.815-.347 4.2 4.2 0 0 1-1.439-1.439 4.2 4.2 0 0 1-1.439-1.439c-.187-.48-.293-1.02-.347-1.815-.036-.795-.044-1.033-.044-3.048V10.93c0-2.015.008-2.253.044-3.048s.16-1.336.347-1.815A4.2 4.2 0 0 1 7.63 4.628a4.2 4.2 0 0 1 1.439-1.439c.48-.187 1.02-.293 1.815-.347s1.033-.044 3.048-.044H12m0-1.6H10.93c-2.052 0-2.311.008-3.118.045s-1.353.205-1.834.391A5.79 5.79 0 0 0 3.92 6.69a5.79 5.79 0 0 0-2.056 2.056c-.186.48-.298.983-.391 1.834-.037.807-.045 1.066-.045 3.118v2.14c0 2.052.008 2.311.045 3.118s.205 1.353.391 1.834A5.79 5.79 0 0 0 3.92 22.846a5.79 5.79 0 0 0 2.056 2.056c.48.186.983.298 1.834.391.807.037 1.066.045 3.118.045h2.14c2.052 0 2.311-.008 3.118-.045s1.353-.205 1.834-.391A5.79 5.79 0 0 0 20.08 22.846a5.79 5.79 0 0 0 2.056-2.056c.186-.48.298-.983.391-1.834.037-.807.045-1.066.045-3.118v-2.14c0-2.052-.008-2.311-.045-3.118s-.205-1.353-.391-1.834A5.79 5.79 0 0 0 20.08 6.69a5.79 5.79 0 0 0-2.056-2.056c-.48-.186-.983-.298-1.834-.391C15.38 4.208 15.12 4.2 13.07 4.2H12z" fill="#FFF"/><path d="M12 7.8A4.2 4.2 0 1 0 16.2 12 4.2 4.2 0 0 0 12 7.8zm0 6.8A2.6 2.6 0 1 1 14.6 12 2.6 2.6 0 0 1 12 14.6z" fill="#FFF"/><circle cx="16.4" cy="7.6" r="1.1" fill="#FFF"/></svg>
