<svg viewBox="0 0 24 24" fill="#24A1DE" xmlns="http://www.w3.org/2000/svg"><path d="M11.944 0A12 12 0 0 0 0 12a12 12 0 0 0 12 12 12 12 0 0 0 12-12A12 12 0 0 0 12 0a12 12 0 0 0-.056 0zm4.962 7.224c.1-.002.321.023.465.14a.506.506 0 0 1 .171.325c.016.093.036.306.02.503-.188 2.45-.635 5.861-.938 7.382-.128.646-.355.865-.588.886-.507.047-.891-.335-1.381-.655-.767-.501-1.202-.812-1.946-1.303-.861-.567-.302-.879.188-1.388.128-.133 2.358-2.163 2.404-2.355.006-.024.01-.11-.055-.17-.065-.06-.156-.04-.223-.025-.096.02-1.623 1.03-4.578 3.023-.433.298-.826.444-1.18.435-.389-.01-.764-.221-1.138-.342-.457-.15-1.464-.492-1.332-1.047a.78.78 0 0 1 .37-.411c.216-.118.847-.247 2.016-.62 3.243-1.164 4.398-1.626 5.318-1.913.33-.11.758-.23 1.04-.23z" fill="#24A1DE"/><path d="M10.02 16.32l.06-3.08 5.76-5.2c.25-.22-.05-.35-.39-.12l-7.12 4.48-3-.93c-.65-.2-.66-.65.14-.96l11.7-4.51c.54-.2.99.13.82 1l-1.98 9.34c-.15.68-.56.85-1.13.53l-3.13-2.3-1.51 1.45c-.17.17-.31.31-.63.31z" fill="#FFF"/></svg>
