<?xml version="1.0" encoding="UTF-8"?>
<svg xmlns="http://www.w3.org/2000/svg" class="svg-icon icon-trovo" viewBox="2 2.79 81.1 22"><path fill="#19D66B" fill-rule="evenodd" clip-rule="evenodd" d="M57.6 7.09346C57.9 7.09346 58.1 7.19346 58.1 7.49346L57.7 14.2935L60.9 7.19346C61 6.99346 61.2 6.89346 61.4 6.89346H67.3C67.5 6.89346 67.7 7.09346 67.7 7.29346C67.7 7.39346 67.7 7.39346 67.7 7.49346L60 24.4935C59.9 24.6935 59.7 24.7935 59.5 24.7935H51.3C51 24.7935 50.8 24.5935 50.8 24.2935L51.9 7.59346C51.9 7.29346 52.1 7.09346 52.4 7.09346H57.6ZM29.5 7.09346L29 9.19346C29.7854 8.40805 30.7 7.39346 31.7 7.09346H37C37.269 7.09346 37.5282 7.29346 37.2 7.59346C35.6 8.69346 34.3 9.59346 33.5 10.4935C32.9 11.0935 32.2 12.0935 31.5 13.5935L30.9 15.1935L30.4 16.9935L28.8 24.3935C28.8 24.5935 28.5 24.7935 28.3 24.7935H22.3C22 24.7935 21.8 24.5935 21.8 24.2935V24.1935L25.3 7.49346C25.3 7.29346 25.6 7.09346 25.8 7.09346H29.5ZM41.8 6.99346C46.7 6.99346 50.6 10.8935 50.6 15.7935C50.6 20.6935 46.7 24.5935 41.8 24.5935C36.9 24.5935 33 20.6935 33 15.7935C33 10.8935 36.9 6.99346 41.8 6.99346ZM74.3 6.99346C79.2 6.99346 83.1 10.8935 83.1 15.7935C83.1 20.6935 79.2 24.5935 74.3 24.5935C69.4 24.5935 65.5 20.6935 65.5 15.7935C65.5 10.8935 69.4 6.99346 74.3 6.99346ZM41.8 12.9935C40.2 12.9935 39 14.2935 39 15.7935C39 17.2935 40.3 18.5935 41.8 18.5935C43.3 18.5935 44.6 17.2935 44.6 15.7935C44.6 14.2935 43.4 12.9935 41.8 12.9935ZM17.2 2.79346C17.5 2.79346 17.7 2.99346 17.7 3.29346V3.39346L17 6.59346C17 6.69346 17.1 6.89346 17.2 6.89346C17.2 6.89346 17.2 6.89346 17.3 6.89346H23.7C24 6.89346 24.2923 7.09346 24.2 7.49346L22.7 13.7935C22.6 14.0935 22.4 14.1935 22.1 14.1935L18.6 13.9935C17.5 13.9935 16.3 14.2935 15.4 15.2935C14.2 16.4935 14.1 18.2935 14.6 19.5935C15.1 20.8935 16.5 21.5935 17.9 21.2935C19 21.0935 19.6 19.9935 19.5 19.0935C19.4 18.0935 19 17.7935 18.4 17.7935C17.8 17.7935 17.6 18.0935 17.6 18.3935C17.6 18.6935 17.7 18.8935 17.9 19.0935C18.2 19.3935 17.6 20.2935 16.8 19.7935C16.3 19.4935 16 18.8935 16.1 17.9935C16.2 16.8935 17.1 15.8935 18.7 15.8935C20.3 15.8935 21.5 16.8935 21.8 18.3935C22.3 20.2935 21.3 22.5935 19 23.7935C16.2 25.2935 11.5 25.1935 8.89996 22.3935C7.39996 20.7935 6.89996 18.6935 6.99996 16.7935C6.99996 16.1935 7.09996 15.4935 7.29996 14.8935C7.29996 14.6935 7.19996 14.4935 6.99996 14.3935H6.89996H2.49996C2.19996 14.3935 1.99996 14.0935 1.99996 13.7935V13.6935L3.39996 7.59346C3.49996 7.19346 3.79996 6.99346 4.19996 6.99346H8.49996C8.69996 6.89346 8.89996 6.79346 8.99996 6.49346L9.69996 3.39346C9.79996 2.99346 10.2 2.79346 10.5 2.79346H17.2ZM74.3 12.9935C75.9 12.9935 77.1 14.2935 77.1 15.7935C77.1 17.2935 75.8 18.5935 74.3 18.5935C72.8 18.5935 71.5 17.2935 71.5 15.7935C71.5 14.2935 72.8 12.9935 74.3 12.9935Z"/></svg>